HIERARCHY
ROOT pelvis
{
  OFFSET 0 100 0
  CHANNELS 6 Xposition Yposition Zposition Zrotation Xrotation Yrotation
  JOINT pelvis_right_femur
  {
    OFFSET -10.78128 -3.44521 -0.5502486
    CHANNELS 3 Zrotation Xrotation Yrotation
    JOINT right_femur_tibia
    {
      OFFSET -0.8047443 -44.0398 -0.1307829
      CHANNELS 3 Zrotation Xrotation Yrotation
      JOINT right_tibia_foot
      {
        OFFSET 3.006224 -47.83518 -5
        CHANNELS 3 Zrotation Xrotation Yrotation
        End Site
        {
          OFFSET 0 -5 15
        }
      }
    }
  }
  JOINT pelvis_left_femur
  {
    OFFSET 10.78128 -3.44521 -0.5502486
    CHANNELS 3 Zrotation Xrotation Yrotation
    JOINT left_femur_tibia
    {
      OFFSET 0.8047443 -44.0398 -0.1307829
      CHANNELS 3 Zrotation Xrotation Yrotation
      JOINT left_tibia_foot
      {
        OFFSET -4.370144 -48.10324 -4.275266
        CHANNELS 3 Zrotation Xrotation Yrotation
        End Site
        {
          OFFSET 0 -5 15
        }
      }
    }
  }
  JOINT pelvis_spine1
  {
    OFFSET 0 6.468898 -3.129235
    CHANNELS 3 Zrotation Xrotation Yrotation
    JOINT spine1
    {
      OFFSET 0 23.15396 4.99043
      CHANNELS 3 Zrotation Xrotation Yrotation
      JOINT spine2
      {
        OFFSET 0 20.79997 -5.064912
        CHANNELS 3 Zrotation Xrotation Yrotation
        JOINT neck
        {
          OFFSET 0 14.38658 9.616178
          CHANNELS 3 Zrotation Xrotation Yrotation
          End Site
          {
            OFFSET 0 20 0
          }
        }
      }
      JOINT right_manubrium
      {
        OFFSET -5.722621 16.35077 3.967754
        CHANNELS 3 Zrotation Xrotation Yrotation
        JOINT right_clavicle
        {
          OFFSET -13.16364 1.694482 -4.693211
          CHANNELS 3 Zrotation Xrotation Yrotation
          JOINT right_humerus
          {
            OFFSET -28.5034 -0.3100689 -2.792744
            CHANNELS 3 Zrotation Xrotation Yrotation
            JOINT right_radius
            {
              OFFSET -25.15693 0.02248979 -1.271978
              CHANNELS 3 Zrotation Xrotation Yrotation
              End Site
              {
                OFFSET -15 0 0
              }
            }
          }
        }
      }
      JOINT left_manubrium
      {
        OFFSET 5.722621 16.35077 3.967754
        CHANNELS 3 Zrotation Xrotation Yrotation
        JOINT left_clavicle
        {
          OFFSET 13.16364 1.694482 -4.693211
          CHANNELS 3 Zrotation Xrotation Yrotation
          JOINT left_humerus
          {
            OFFSET 29.39168 -1.063119 -2.237045
            CHANNELS 3 Zrotation Xrotation Yrotation
            JOINT left_radius
            {
              OFFSET 24.59957 -0.9528479 0.9047498
              CHANNELS 3 Zrotation Xrotation Yrotation
              End Site
              {
                OFFSET 15 -0 -0
              }
            }
          }
        }
      }
    }
  }
}
MOTION
Frames: 17
Frame Time: 0.0416666666667
0 103.5113 0 0.6978503 -0.4445344 -0.09816723 4.633109 -17.88221 11.01049 -0 39.53325 -0 -5.268818 -19.04259 -4.120401 -7.012647 10.50122 -24.05087 -0 6.98975 -0 10.61131 -15.57203 28.14276 -3.833533 -3.504777 4.632154 2.844814 9.26908 -7.694189 1.457107 21.97494 6.616271 2.859271 -24.76226 9.62169 6.932454 -19.764 11.63013 84.81889 36.68829 -18.35984 -0 0 16.75659 -5.024549 7.583905 3.71863 5.263434 -18.43234 -1.437064 -94.27569 27.08332 22.55756 0 0 -14.78257 8.430699 16.25579 4.511156
0.2665952 103.5132 1.397463 0.6267985 -0.5970161 -0.1496856 4.571211 -18.00988 10.6599 -0 39.7934 -0 -5.508964 -17.78983 -3.959858 -6.919531 10.45264 -23.72731 -0 7.026533 -0 10.00683 -15.85084 27.67561 -3.705784 -3.344587 4.537724 2.725672 9.375023 -7.641644 1.441239 21.98849 6.703287 2.955696 -24.71763 9.586189 6.795549 -19.7545 11.63998 85.02096 36.35727 -18.40716 -0 0 16.62067 -5.531962 7.682623 3.926001 5.291986 -18.62175 -1.603336 -94.25123 27.1806 22.57431 0 0 -14.93894 8.130301 16.26947 4.946391
0.5640078 103.3748 3.131863 0.3627177 0.1058752 -0.06959572 4.894977 -21.06201 9.719313 -0 36.74769 -0 -5.792019 -14.93585 -3.260013 -6.804854 10.46854 -22.70002 -0 6.712271 -0 9.254316 -17.36876 26.49104 -3.46004 -2.856663 4.602517 2.62006 9.465953 -7.616491 1.508921 21.61182 6.914973 3.266142 -25.08146 9.680842 6.582 -19.58892 11.56464 85.34028 36.19376 -18.73516 -0 0 16.21862 -6.173801 8.024846 4.081895 5.940965 -19.4663 -1.562921 -93.63887 26.49829 21.86946 0 0 -16.30437 9.120261 16.0106 4.124295
0.8791235 103.0746 5.135917 0.1286602 0.8496185 0.1115216 5.27534 -23.78216 9.074845 -0 33.4968 -0 -5.942161 -13.13965 -2.786909 -6.725265 10.71264 -21.98027 -0 6.490834 -0 8.464656 -18.82975 25.49004 -3.251218 -2.504783 4.683688 2.58952 9.39133 -7.636572 1.585901 21.28921 7.05932 3.492792 -25.43431 9.778674 6.376595 -19.4112 11.43208 85.62033 36.05245 -19.18314 -0 0 15.89384 -6.364476 8.195579 4.03917 6.509414 -20.11514 -1.420873 -93.29996 26.37021 21.38185 0 0 -17.69466 9.538882 15.8967 3.910529
1.208172 102.5974 7.448287 -0.1607422 1.725076 0.3920169 5.746405 -26.75061 8.415807 -0 29.6632 -0 -6.095538 -11.42914 -2.313901 -6.617963 11.12788 -21.20192 -0 6.37719 -0 7.4139 -20.40922 24.25975 -2.988724 -2.164856 4.74793 2.588658 9.246825 -7.697381 1.651911 20.93708 7.218969 3.722828 -25.82753 9.87675 6.131791 -19.18579 11.26682 85.96654 35.88719 -19.79218 -0 0 15.49079 -6.479671 8.351475 3.945295 7.11064 -20.80443 -1.239521 -92.96881 26.42647 20.866 0 0 -19.36419 9.751935 15.80486 3.93257
1.545055 101.9508 10.10439 -0.5232561 2.639018 0.7718754 6.293187 -29.67161 7.784968 -0 25.72058 -0 -6.30196 -9.788592 -1.867665 -6.453305 11.68451 -20.36866 -0 6.519848 -0 5.990989 -21.92852 22.73902 -2.644791 -1.848761 4.752967 2.603898 9.052486 -7.796646 1.688321 20.5853 7.397493 3.944614 -26.22594 9.957595 5.853038 -18.91885 11.08413 86.38549 35.66928 -20.5297 -0 0 15.01162 -6.566122 8.493934 3.835032 7.666299 -21.48432 -1.059679 -92.69351 26.7275 20.40863 0 0 -21.15975 9.627058 15.74263 4.339255
1.881943 101.1639 13.15905 -0.9879206 3.530796 1.252857 6.923159 -32.39235 7.181869 -0 21.93512 -0 -6.623264 -8.152209 -1.450307 -6.194335 12.36544 -19.42874 -0 7.101 -0 4.107572 -23.21795 20.83499 -2.183814 -1.550455 4.656596 2.62744 8.825043 -7.932495 1.682419 20.24927 7.595473 4.146204 -26.60952 10.01024 5.530052 -18.59666 10.88944 86.89346 35.36504 -21.3613 -0 0 14.41774 -6.674039 8.626633 3.741675 8.12906 -22.13415 -0.910328 -92.45154 27.22535 19.99698 0 0 -22.95832 9.185048 15.67535 5.098619
2.209318 100.2947 16.67736 -1.569834 4.322023 1.82974 7.642872 -34.65692 6.648232 -0 18.65639 -0 -7.102491 -6.597904 -1.09214 -5.810561 13.13347 -18.36529 -0 8.374632 -0 1.775835 -24.01026 18.54396 -1.586603 -1.280012 4.420832 2.661779 8.576425 -8.103673 1.622211 19.9544 7.798382 4.298761 -26.94791 10.02288 5.172588 -18.20265 10.68898 87.48039 34.98193 -22.22153 -0 0 13.67866 -6.805555 8.743145 3.685387 8.43036 -22.69545 -0.8100733 -92.2221 27.83901 19.61445 0 0 -24.54798 8.49864 15.55306 6.104745
2.51796 99.43643 20.73099 -2.25771 4.912789 2.479562 8.435229 -36.12108 6.222086 -0 16.25046 -0 -7.759535 -5.285032 -0.8369731 -5.28513 13.91264 -17.17032 -0 10.69223 -0 -0.8402445 -23.95725 15.98066 -0.858868 -1.059188 4.020344 2.716803 8.327217 -8.30646 1.495691 19.73514 7.979467 4.363395 -27.19365 9.978333 4.808942 -17.71667 10.49492 88.12029 34.57213 -23.01823 -0 0 12.75436 -6.958088 8.844097 3.690241 8.492423 -23.09243 -0.7732078 -91.94961 28.39787 19.20076 0 0 -25.65488 7.742825 15.30613 7.111897
2.803045 98.72452 25.3837 -2.988087 5.179105 3.14691 9.226413 -36.33669 5.917303 -0 15.05535 -0 -8.568721 -4.432182 -0.7403453 -4.635794 14.54609 -15.8584 -0 14.51564 -0 -3.376943 -22.68991 13.43354 -0.05336771 -0.9213032 3.469191 2.804966 8.117905 -8.527524 1.295814 19.63596 8.099488 4.301506 -27.27699 9.851544 4.495624 -17.12715 10.33165 88.76809 34.24709 -23.63955 -0 0 11.61134 -7.139689 8.949253 3.786175 8.239968 -23.24173 -0.8078668 -91.55848 28.64844 18.67507 0 0 -25.97303 7.174477 14.86747 7.759754
3.069387 98.33348 30.66156 -3.6211 4.990403 3.733697 9.859988 -34.81327 5.698151 -0 15.23572 -0 -9.437979 -4.226039 -0.8483201 -3.940747 14.73813 -14.47683 -0 20.36891 -0 -5.328892 -19.97521 11.33634 0.7088388 -0.8962914 2.86226 2.92836 8.020537 -8.731552 1.032228 19.70436 8.112759 4.100328 -27.11283 9.61126 4.317406 -16.45439 10.24007 89.35941 34.16918 -23.97763 -0 0 10.25755 -7.393747 9.110831 4.00647 7.63489 -23.08631 -0.9117604 -91.00565 28.31608 18.00236 0 0 -25.26603 7.047076 14.20365 7.691564
3.333508 98.45019 36.50505 -3.94614 4.264813 4.113119 10.12586 -31.21395 5.491397 -0 16.54702 -0 -10.20202 -4.668064 -1.145933 -3.349586 14.00376 -13.11099 -0 28.61851 -0 -6.272493 -15.95544 10.10907 1.239181 -0.976074 2.413703 3.057943 8.138442 -8.849363 0.7467132 19.96722 7.985657 3.812238 -26.63364 9.23122 4.371169 -15.78479 10.27552 89.8058 34.51163 -23.96456 -0 0 8.810252 -7.818624 9.420078 4.376841 6.733077 -22.65326 -1.066535 -90.37598 27.26133 17.31347 0 0 -23.54788 7.441362 13.35156 6.801855
3.614762 99.20282 42.72398 -3.760437 3.042751 4.183831 9.867811 -25.67128 5.236135 -0 18.14594 -0 -10.66075 -5.45002 -1.499104 -3.030845 11.72569 -11.86031 -0 38.98586 -0 -6.158755 -11.34067 9.943733 1.346019 -1.073248 2.425967 3.115877 8.570279 -8.781217 0.5167837 20.39701 7.724612 3.573586 -25.84329 8.710822 4.708607 -15.29005 10.48968 89.9918 35.35186 -23.58765 -0 0 7.560062 -8.56916 9.979069 4.907001 5.730265 -22.10342 -1.244691 -89.91898 25.67214 16.95778 0 0 -21.24756 8.111438 12.45334 5.47735
3.915068 100.5517 49.00905 -3.017441 1.500644 3.9333 9.101869 -18.97227 4.907053 -0 18.78688 -0 -10.68274 -6.099536 -1.690478 -3.027376 7.450127 -10.77397 -0 49.95726 -0 -5.400994 -7.289517 10.7206 0.9702748 -1.024804 3.115931 2.99049 9.322049 -8.432556 0.4252107 20.90676 7.386153 3.536219 -24.84306 8.095698 5.233701 -15.18211 10.88998 89.78513 36.50077 -22.825 -0 0 6.935728 -9.808335 10.80406 5.599751 4.920247 -21.68119 -1.435131 -89.90493 24.06832 17.30946 0 0 -19.10096 8.561511 11.73536 4.494601
4.209436 102.2167 55.04155 -1.929335 -0.1523359 3.438792 8.037842 -12.2366 4.480264 -0 17.57224 -0 -10.32063 -6.471896 -1.601361 -3.117377 1.329161 -9.775361 -0 58.7682 -0 -4.598682 -4.812889 12.11101 0.2882738 -0.6824973 4.374807 2.604265 10.22027 -7.774156 0.5018269 21.40858 7.038921 3.715011 -23.7717 7.47928 5.640431 -15.5952 11.39488 89.07106 37.41094 -21.52911 -0 0 7.305352 -11.59879 11.70856 6.469502 4.529188 -21.52035 -1.657606 -90.39043 22.94514 18.40145 0 0 -17.63846 8.418308 11.34906 4.430491
4.472042 103.7457 60.6435 -0.8796318 -1.765327 2.802051 6.971823 -6.21465 3.928799 -0 14.65245 -0 -9.785121 -7.051557 -1.324178 -2.88116 -5.774198 -8.665567 -0 62.56722 -0 -4.120496 -4.102202 13.73863 -0.3701372 -0.03675129 5.753686 1.991617 10.95619 -6.882646 0.6900718 21.86873 6.715537 3.930092 -22.71896 6.967713 5.556594 -16.49846 11.84435 87.82098 37.44311 -19.47125 -0 0 8.756795 -13.8109 12.35292 7.534972 4.556884 -21.48893 -1.926706 -91.16158 22.37531 19.84166 0 0 -16.72676 7.744392 11.21184 5.148672
4.715119 104.7143 65.84507 -0.1890381 -3.154326 2.095013 6.12002 -0.972398 3.273266 -0 11.02311 -0 -9.258719 -8.478961 -0.9871456 -1.993897 -12.79474 -7.274383 -0 60.05699 -0 -3.944685 -4.505511 15.2883 -0.7530732 0.7376904 6.796613 1.300574 11.28603 -5.922641 0.8718832 22.25726 6.43529 3.980799 -21.74564 6.620974 4.873427 -17.73774 12.10316 86.14425 36.46057 -16.61892 -0 0 11.08591 -16.17392 12.52995 8.799794 4.812952 -21.3124 -2.194038 -91.9384 22.04748 21.23677 0 0 -15.7885 6.92056 11.10021 6.024721
